#!OML:ASF X:\für Bonn\!DataBase\2005_08_12_Daniel\c3d\Daniel.ASF
:FULLY-SPECIFIED
:DEGREES
306
root 1.53611 17.0948 0.650074 -150.983 -86.1557 143.58
lowerback 20.8326 -0.160139 -2.80492
upperback 4.16436 -1.69896 -5.56774
thorax -7.21783 -0.990624 -3.97705
lowerneck 0.899271 0.408249 -2.40664
upperneck -3.77664 0.302962 -3.6892
head -1.31208 0.218629 -0.74233
rclavicle -1.98785e-015 3.18055e-014
rhumerus -220.835 -195.662 81.5343
rradius 79.7903
rwrist 22.9903
rhand -19.3533 379.22
rfingers 7.12502
rthumb 6.96414 -10.6457
lclavicle -1.98785e-015 3.18055e-014
lhumerus -215.607 192.084 -93.6965
lradius 96.3215
lwrist -24.5162
lhand -3.01495 361.92
lfingers 7.12502
lthumb 22.6996 30.6047
rfemur -5.10754 3.54105 10.6494
rtibia 30.8479
rfoot -22.1197 -11.561
rtoes -11.1205
lfemur -9.98679 -21.319 -22.0565
ltibia 38.4696
lfoot -29.2703 14.876
ltoes 1.43889
307
root 1.56354 17.0952 0.672516 -151.646 -86.0465 144.229
lowerback 20.9029 -0.154022 -2.90462
upperback 4.20038 -1.72002 -5.57204
thorax -7.2144 -1.00064 -3.91861
lowerneck 0.921854 0.453121 -2.32231
upperneck -3.60704 0.371334 -3.72629
head -1.2618 0.249656 -0.767963
rclavicle 5.1684e-015 5.725e-014
rhumerus -219.844 -194.822 81.2364
rradius 79.9165
rwrist 23.3058
rhand -19.5731 379.169
rfingers 7.12502
rthumb 6.75193 -10.7037
lclavicle 5.1684e-015 5.725e-014
lhumerus -214.41 191.791 -93.5758
lradius 96.1229
lwrist -24.7578
lhand -3.36119 361.846
lfingers 7.12502
lthumb 22.3673 30.5717
rfemur -5.27039 3.44105 10.4976
rtibia 30.865
rfoot -21.9484 -11.3924
rtoes -11.4681
lfemur -10.0303 -21.5683 -22.1913
ltibia 38.4656
lfoot -29.3983 15.1912
ltoes 1.47532
308
root 1.59022 17.0936 0.694556 -151.867 -85.9219 144.437
lowerback 20.9723 -0.142267 -3.05711
upperback 4.2229 -1.746 -5.57777
thorax -7.22406 -1.01186 -3.8303
lowerneck 0.972192 0.506373 -2.21448
upperneck -3.44435 0.449971 -3.7717
head -1.2184 0.28618 -0.800383
rclavicle -9.14409e-015 -3.97569e-014
rhumerus -218.896 -194.145 80.85
rradius 79.9895
rwrist 23.2677
rhand -19.9821 379.025
rfingers 7.12502
rthumb 6.35711 -10.8598
lclavicle -9.14409e-015 -3.97569e-014
lhumerus -213.284 191.443 -93.3754
lradius 95.9451
lwrist -24.8164
lhand -3.67055 361.834
lfingers 7.12502
lthumb 22.0703 30.5941
rfemur -5.43858 3.3213 10.3112
rtibia 30.8941
rfoot -21.7733 -11.2216
rtoes -11.7908
lfemur -10.084 -21.74 -22.3456
ltibia 38.4654
lfoot -29.4971 15.4338
ltoes 1.45338
309
root 1.61652 17.0933 0.717542 -152.368 -85.8124 144.949
lowerback 21.0064 -0.138284 -3.17778
upperback 4.25225 -1.77112 -5.5756
thorax -7.20786 -1.02305 -3.75157
lowerneck 0.965611 0.548857 -2.14621
upperneck -3.2671 0.516954 -3.78473
head -1.16077 0.315991 -0.815517
rclavicle -1.19271e-014 -1.90833e-014
rhumerus -217.982 -193.611 80.3993
rradius 79.976
rwrist 22.9953
rhand -20.5987 378.911
rfingers 7.12502
rthumb 5.76178 -10.9905
lclavicle -1.19271e-014 -1.90833e-014
lhumerus -212.142 191.106 -93.1483
lradius 95.7774
lwrist -24.6458
lhand -3.9301 361.824
lfingers 7.12502
lthumb 21.8211 30.614
rfemur -5.62461 3.22573 10.1593
rtibia 30.9173
rfoot -21.6068 -11.079
rtoes -12.1246
lfemur -10.1696 -21.8811 -22.4569
ltibia 38.4753
lfoot -29.5917 15.6577
ltoes 1.47651
310
root 1.64225 17.0924 0.740078 -152.566 -85.7063 145.164
lowerback 21.0407 -0.1339 -3.35972
upperback 4.26871 -1.80541 -5.54067
thorax -7.20322 -1.03631 -3.59946
lowerneck 0.966137 0.602845 -2.12005
upperneck -3.10757 0.596253 -3.80959
head -1.10996 0.352772 -0.827536
rclavicle 1.27222e-014 -1.90833e-014
rhumerus -217.14 -193.344 79.9545
rradius 79.9078
rwrist 22.4312
rhand -21.3481 378.813
rfingers 7.12502
rthumb 5.03823 -11.1066
lclavicle 1.27222e-014 -1.90833e-014
lhumerus -211.062 190.741 -92.8134
lradius 95.6486
lwrist -24.3634
lhand -4.19701 361.926
lfingers 7.12502
lthumb 21.5648 30.7458
rfemur -5.81796 3.13954 9.98877
rtibia 30.9516
rfoot -21.468 -10.941
rtoes -12.3688
lfemur -10.2589 -22.0567 -22.5822
ltibia 38.4871
lfoot -29.6956 15.8616
ltoes 1.55974
311
root 1.66764 17.0908 0.763094 -153.014 -85.6018 145.619
lowerback 21.0929 -0.1246 -3.51222
upperback 4.27929 -1.82896 -5.51029
thorax -7.21484 -1.04494 -3.47236
lowerneck 0.943264 0.642229 -2.07091
upperneck -2.90855 0.659547 -3.82753
head -1.04298 0.38032 -0.84057
rclavicle -1.11319e-014 3.18055e-015
rhumerus -216.374 -193.188 79.4673
rradius 79.8419
rwrist 21.6666
rhand -22.1866 378.737
rfingers 7.12502
rthumb 4.22859 -11.2013
lclavicle -1.11319e-014 3.18055e-015
lhumerus -210.02 190.442 -92.4452
lradius 95.5409
lwrist -23.9532
lhand -4.53257 362.1
lfingers 7.12502
lthumb 21.2425 30.9565
rfemur -6.00518 3.07466 9.84642
rtibia 30.9846
rfoot -21.3196 -10.8354
rtoes -12.8074
lfemur -10.3498 -22.1668 -22.691
ltibia 38.5079
lfoot -29.7671 16.0796
ltoes 1.53917
312
root 1.69253 17.0904 0.786621 -153.152 -85.5024 145.782
lowerback 21.1214 -0.125495 -3.68274
upperback 4.2867 -1.86729 -5.47533
thorax -7.217 -1.06004 -3.32596
lowerneck 0.910995 0.690331 -2.08895
upperneck -2.71243 0.734217 -3.80577
head -0.975485 0.413662 -0.830111
rclavicle -1.59028e-014 1.90833e-014
rhumerus -215.619 -193.09 78.96
rradius 79.7164
rwrist 20.8754
rhand -22.9818 378.686
rfingers 7.12502
rthumb 3.46063 -11.2661
lclavicle -1.59028e-014 1.90833e-014
lhumerus -209.018 190.152 -92.0289
lradius 95.4493
lwrist -23.4098
lhand -4.91988 362.256
lfingers 7.12502
lthumb 20.8704 31.1538
rfemur -6.20385 2.99475 9.68318
rtibia 31.025
rfoot -21.185 -10.7163
rtoes -13.0576
lfemur -10.4538 -22.3298 -22.8173
ltibia 38.5355
lfoot -29.8533 16.305
ltoes 1.56032
313
root 1.71726 17.0889 0.809615 -153.429 -85.409 146.085
lowerback 21.1385 -0.12505 -3.85783
upperback 4.30295 -1.90327 -5.43531
thorax -7.20273 -1.07413 -3.17202
lowerneck 0.83613 0.728134 -2.01658
upperneck -2.49554 0.79725 -3.84721
head -0.894399 0.44007 -0.853698
rclavicle 7.95139e-016 2.8625e-014
rhumerus -214.882 -193.084 78.4324
rradius 79.5824
rwrist 20.0604
rhand -23.7279 378.624
rfingers 7.12502
rthumb 2.74015 -11.3382
lclavicle 7.95139e-016 2.8625e-014
lhumerus -208.035 189.949 -91.6436
lradius 95.3457
lwrist -22.7783
lhand -5.45427 362.3
lfingers 7.12502
lthumb 20.3569 31.2533
rfemur -6.4113 2.92166 9.5387
rtibia 31.07
rfoot -21.0506 -10.6345
rtoes -13.4013
lfemur -10.5654 -22.5238 -22.9295
ltibia 38.5727
lfoot -29.9762 16.5364
ltoes 1.60356
